<svg xmlns="http://www.w3.org/2000/svg" xmlns:xlink="http://www.w3.org/1999/xlink" version="1.1" x="0px" y="0px" viewBox="0 0 100 125" enable-background="new 0 0 100 100" xml:space="preserve"><g><path d="M89.373,19.519L75.408,5.573C75.092,5.258,74.471,5,74.021,5H18.959c-0.898,0-1.619,0.728-1.617,1.622v28.792   c0,0.449,0.365,0.813,0.813,0.813h2.545c0.445,0,0.809-0.364,0.809-0.813V9.665c0-0.334,0.27-0.6,0.6-0.6h48.551   c0.332,0,0.6,0.266,0.6,0.6l0.008,12.279c-0.01,0.897,0.711,1.622,1.607,1.622h12.389c0.33,0,0.6,0.269,0.6,0.601v66.172   c0,0.332-0.27,0.6-0.6,0.6H22.107c-0.33,0-0.6-0.268-0.6-0.6V72.166c0-0.448-0.363-0.813-0.809-0.813h-2.545   c-0.447,0-0.813,0.364-0.814,0.813l0.002,21.213C17.34,94.275,18.061,95,18.959,95h69.416c0.896,0,1.621-0.725,1.625-1.621   l-0.059-72.478C89.945,20.455,89.688,19.833,89.373,19.519z"/><path d="M11.635,66.929H63.94c0.895,0,1.623-0.72,1.623-1.621V42.276c0-0.898-0.729-1.625-1.623-1.625H11.621   c-0.896,0-1.621,0.728-1.615,1.625L10,65.308C10.002,66.209,10.736,66.929,11.635,66.929z M44.665,45.195h6.052   c2.012,0,3.313,0.084,3.965,0.261c1.062,0.276,1.964,0.882,2.674,1.8c0.72,0.921,1.072,2.104,1.072,3.513   c0,1.082-0.202,2.019-0.614,2.783c-0.403,0.757-0.935,1.366-1.573,1.809c-0.619,0.428-1.271,0.719-1.923,0.86   c-0.817,0.162-1.948,0.238-3.442,0.238h-1.284v5.877h-4.926V45.195z M35.198,45.195h5.123v17.142h-5.123V45.195z M17.137,58.464   l7.426-9.144h-6.467v-4.077h13.669v3.368l-7.85,9.605h8.186v4.169H17.133L17.137,58.464z"/><path d="M52.4,52.232c0.245-0.096,0.424-0.236,0.566-0.431c0.13-0.193,0.196-0.419,0.196-0.688c0-0.331-0.093-0.588-0.271-0.787   c-0.194-0.215-0.438-0.344-0.745-0.401c-0.209-0.041-0.707-0.086-1.928-0.086h-0.666v2.562h0.854   C51.807,52.401,52.266,52.284,52.4,52.232z"/></g><text x="0" y="115" fill="#000000" font-size="5px" font-weight="bold" font-family="'Helvetica Neue', Helvetica, Arial-Unicode, Arial, Sans-serif">Created by Milinda Courey</text><text x="0" y="120" fill="#000000" font-size="5px" font-weight="bold" font-family="'Helvetica Neue', Helvetica, Arial-Unicode, Arial, Sans-serif">from the Noun Project</text></svg>